<?xml version="1.0" encoding="UTF-8" standalone="no"?>
<!-- Created with Inkscape (http://www.inkscape.org/) -->

<svg
   width="512"
   height="512"
   viewBox="0 0 135.46667 135.46667"
   version="1.1"
   id="svg5"
   inkscape:version="1.1 (c4e8f9ed74, 2021-05-24)"
   sodipodi:docname="mirage.svg"
   xmlns:inkscape="http://www.inkscape.org/namespaces/inkscape"
   xmlns:sodipodi="http://sodipodi.sourceforge.net/DTD/sodipodi-0.dtd"
   xmlns="http://www.w3.org/2000/svg"
   xmlns:svg="http://www.w3.org/2000/svg">
  <sodipodi:namedview
     id="namedview7"
     pagecolor="#ffffff"
     bordercolor="#666666"
     borderopacity="1.0"
     inkscape:pageshadow="2"
     inkscape:pageopacity="0.0"
     inkscape:pagecheckerboard="0"
     inkscape:document-units="px"
     showgrid="false"
     inkscape:snap-global="false"
     inkscape:zoom="0.41894531"
     inkscape:cx="224.37296"
     inkscape:cy="533.48252"
     inkscape:window-width="1914"
     inkscape:window-height="1049"
     inkscape:window-x="3"
     inkscape:window-y="28"
     inkscape:window-maximized="1"
     inkscape:current-layer="layer1" />
  <defs
     id="defs2">
    <clipPath
       clipPathUnits="userSpaceOnUse"
       id="clipPath38315">
      <circle
         style="fill:none;stroke:#000000;stroke-width:0.86791;stroke-miterlimit:4;stroke-dasharray:none;stroke-opacity:1"
         id="circle38317"
         cx="67.733337"
         cy="67.733337"
         r="60.420212" />
    </clipPath>
    <clipPath
       clipPathUnits="userSpaceOnUse"
       id="clipPath49811">
      <circle
         style="fill:#cccccc;fill-opacity:1;stroke:none;stroke-width:1.59982;stroke-miterlimit:4;stroke-dasharray:none;stroke-opacity:1"
         id="circle49813"
         cx="67.733337"
         cy="67.733337"
         r="60.854168" />
    </clipPath>
  </defs>
  <g
     inkscape:label="Layer 1"
     inkscape:groupmode="layer"
     id="layer1">
    <circle
       style="fill:#ffd065;stroke-width:0.79375002;stroke:none;stroke-opacity:1;stroke-miterlimit:4;stroke-dasharray:none;fill-opacity:1"
       id="path43"
       cx="67.733337"
       cy="67.733337"
       r="66.145836" />
    <g
       id="g38295"
       clip-path="url(#clipPath38315)">
      <g
         id="g38185">
        <rect
           style="fill:#d2763b;fill-opacity:1;stroke:none;stroke-width:0.79375;stroke-miterlimit:4;stroke-dasharray:none;stroke-opacity:1"
           id="rect2537"
           width="3.9673412"
           height="45.753143"
           x="65.692757"
           y="26.124743" />
        <rect
           style="fill:#d2763b;fill-opacity:1;stroke:none;stroke-width:0.79375;stroke-miterlimit:4;stroke-dasharray:none;stroke-opacity:1"
           id="rect2639"
           width="3.9673412"
           height="45.753143"
           x="98.07663"
           y="40.892017" />
        <rect
           style="fill:#d2763b;fill-opacity:1;stroke:none;stroke-width:0.79375;stroke-miterlimit:4;stroke-dasharray:none;stroke-opacity:1"
           id="rect2643"
           width="3.9673412"
           height="45.753143"
           x="33.074654"
           y="40.930237" />
        <path
           id="path1133"
           style="fill:#55770d;fill-opacity:1;stroke:none;stroke-width:0.79375;stroke-linecap:butt;stroke-linejoin:miter;stroke-miterlimit:4;stroke-dasharray:none;stroke-opacity:1"
           d="m 57.064244,16.873612 c -1.840955,0.0163 -3.987284,0.347041 -6.56394,1.121378 4.553035,0.184014 7.918554,1.609455 10.931632,3.403411 -6.98167,0.788153 -9.984442,4.36865 -11.422558,9.046993 3.283799,-2.276085 6.191142,-5.10128 11.230838,-4.816761 -6.962577,4.025626 -6.862387,9.192444 -5.508707,14.561904 2.539796,-9.053481 6.858368,-12.047798 12.159464,-11.693862 5.301099,-0.353936 9.831025,2.640381 12.370822,11.693862 1.35368,-5.36946 1.454388,-10.536278 -5.508191,-14.561904 5.039696,-0.284519 7.947038,2.540676 11.23084,4.816761 -1.438119,-4.678343 -4.441407,-8.25884 -11.423076,-9.046993 3.013078,-1.793956 6.378596,-3.219397 10.931631,-3.403411 -9.700353,-2.915153 -13.295834,0.459784 -17.496089,3.211691 -3.084563,-2.020932 -5.842969,-4.37814 -10.932666,-4.333069 z" />
        <path
           id="path2637"
           style="fill:#55770d;fill-opacity:1;stroke:none;stroke-width:0.79375;stroke-linecap:butt;stroke-linejoin:miter;stroke-miterlimit:4;stroke-dasharray:none;stroke-opacity:1"
           d="m 89.448113,31.640886 c -1.840955,0.0163 -3.987284,0.347041 -6.563939,1.121379 4.553035,0.184013 7.918553,1.609454 10.931631,3.40341 -6.981669,0.788154 -9.984441,4.36865 -11.422558,9.046993 3.2838,-2.276085 6.191142,-5.101279 11.230838,-4.81676 -6.962576,4.025626 -6.862387,9.192443 -5.508707,14.561903 2.539796,-9.053481 6.858368,-12.047797 12.159462,-11.693861 5.3011,-0.353936 9.83103,2.64038 12.37082,11.693861 1.35368,-5.36946 1.45439,-10.536277 -5.50819,-14.561903 5.0397,-0.284519 7.94704,2.540675 11.23084,4.81676 -1.43812,-4.678343 -4.4414,-8.258839 -11.42307,-9.046993 3.01308,-1.793956 6.37859,-3.219397 10.93163,-3.40341 -9.70035,-2.915154 -13.29584,0.459783 -17.49609,3.21169 -3.084564,-2.020931 -5.842969,-4.378139 -10.932667,-4.333069 z" />
        <path
           id="path2641"
           style="fill:#55770d;fill-opacity:1;stroke:none;stroke-width:0.79375;stroke-linecap:butt;stroke-linejoin:miter;stroke-miterlimit:4;stroke-dasharray:none;stroke-opacity:1"
           d="m 24.446136,31.679105 c -1.840955,0.0163 -3.987284,0.347041 -6.563939,1.121379 4.553035,0.184013 7.918553,1.609454 10.931631,3.40341 -6.981669,0.788154 -9.984441,4.36865 -11.422558,9.046993 3.2838,-2.276085 6.191142,-5.101279 11.230838,-4.81676 -6.962576,4.025626 -6.862387,9.192443 -5.508707,14.561903 2.539796,-9.053481 6.858368,-12.047797 12.159462,-11.693861 5.3011,-0.353936 9.83103,2.64038 12.37082,11.693861 1.35368,-5.36946 1.45439,-10.536277 -5.50819,-14.561903 5.0397,-0.284519 7.94704,2.540675 11.23084,4.81676 -1.43812,-4.678343 -4.4414,-8.258839 -11.42307,-9.046993 3.01308,-1.793956 6.37859,-3.219397 10.93163,-3.40341 -9.70035,-2.915154 -13.29584,0.459783 -17.49609,3.21169 -3.084564,-2.020931 -5.842969,-4.378139 -10.932667,-4.333069 z" />
      </g>
      <rect
         style="fill:#96e1d4;fill-opacity:1;stroke:none;stroke-width:0.869126;stroke-miterlimit:4;stroke-dasharray:none;stroke-opacity:1"
         id="rect1000"
         width="124.14184"
         height="71.271545"
         x="5.4048018"
         y="66.341743" />
    </g>
    <g
       id="g49809"
       clip-path="url(#clipPath49811)">
      <path
         style="fill:#ffd065;fill-opacity:1;stroke:none;stroke-width:0.31169;stroke-miterlimit:4;stroke-dasharray:none;stroke-opacity:1"
         d="m 95.453501,87.121549 c -0.754276,-1.813202 1.586682,-3.072126 3.341817,-3.19193 1.994092,-0.505779 4.054732,-0.946928 5.892092,-1.936844 -1.47459,-4.215466 -1.43527,-9.045087 2.91699,-8.882357 2.14857,-0.151563 4.4321,1.135918 4.16111,3.256547 -0.35355,1.217318 -0.92386,3.528892 1.18983,1.92846 2.16177,-1.053048 3.93432,-2.706867 6.05851,-3.79143 2.23165,-0.626795 2.80963,1.559833 3.42853,2.898987 0.69536,1.643857 1.60875,3.215711 2.05273,4.955846 -0.25986,2.180141 -2.8698,1.509164 -4.35389,1.42598 -2.16248,0.368636 -1.56046,2.738332 -0.88116,3.854148 0.32938,1.199026 1.90366,2.823899 3.35569,1.452226 0.90744,-1.057492 1.80732,-3.197431 3.59259,-2.436243 1.26478,1.152123 1.57998,2.968277 2.38102,4.423999 0.43741,1.489561 2.16835,3.208336 0.52068,4.78351 -2.89055,-2.265559 -11.69314,1.734573 -8.74253,4.792002 1.61623,0.60092 3.76228,1.21237 3.10101,2.91514 -0.82378,2.4738 -3.74335,4.44176 -6.50857,4.114 -2.20799,0.0249 -2.71188,-1.7003 -2.04039,-3.78936 0.36146,-0.94892 -0.76552,-2.81497 -2.42704,-1.53321 -2.18731,1.07075 -4.04371,2.64075 -6.11979,3.86779 -1.76202,0.69392 -2.96862,-0.71928 -3.29143,-2.03434 -0.81531,-1.91353 -1.82314,-3.7581 -2.42517,-5.755406 0.28976,-2.174923 2.86236,-1.501983 4.35478,-1.415256 8.7265,-4.330627 -0.93496,-8.54055 -2.80571,-4.958263 -0.44901,1.41968 -2.593235,3.167868 -3.763923,1.638283 -1.043336,-2.171724 -2.049639,-4.36313 -2.987761,-6.582286 z"
         id="path4756"
         sodipodi:nodetypes="ccccccccccccccccccccccccccc" />
      <path
         style="fill:#ffd065;fill-opacity:1;stroke:none;stroke-width:0.331206;stroke-miterlimit:4;stroke-dasharray:none;stroke-opacity:1"
         d="m 44.355069,80.422087 c 1.864949,0.936313 0.853881,3.573584 -0.475814,4.887524 -1.254297,1.79041 -2.60702,3.57493 -3.399305,5.64633 4.111182,2.37036 7.429761,6.28524 3.813518,9.173349 -1.624364,1.61243 -4.355603,2.16012 -5.608521,0.26514 -0.559842,-1.225149 -1.704269,-3.481469 -2.295503,-0.726959 -1.009626,2.347229 -1.289231,4.908069 -2.24675,7.254619 -1.361577,2.0526 -3.343656,0.6934 -4.770796,0.0448 -1.700047,-0.84087 -3.52566,-1.47253 -5.09015,-2.56528 -1.303147,-1.93516 1.263174,-3.20555 2.515501,-4.16807 1.48498,-1.796809 -0.643441,-3.286689 -1.964272,-3.713659 -1.096862,-0.7367 -3.491257,-0.95256 -3.708562,1.15881 0.0031,1.48072 0.763203,3.827499 -1.201889,4.453189 -1.817294,-0.05 -3.330858,-1.29331 -4.985466,-1.90944 -1.385383,-0.895599 -3.971,-1.078399 -3.737371,-3.489309 3.898336,-0.18145 8.209181,-9.5076 3.713197,-9.92189 -1.717844,0.63743 -3.869464,1.63394 -4.518365,-0.19544 -1.052939,-2.56274 -0.06796,-6.172108 2.385275,-7.826471 1.760027,-1.551719 3.362416,-0.512526 4.271041,1.63488 0.367294,1.014572 2.568916,1.734887 3.017227,-0.449439 1.017915,-2.379214 1.423149,-4.930745 2.243114,-7.358605 0.936979,-1.780858 2.888549,-1.480299 4.060635,-0.645664 1.983679,0.974741 4.074489,1.760424 5.944597,2.950542 1.275461,1.951714 -1.262164,3.194597 -2.523664,4.160052 -4.020332,9.539395 6.677052,6.226185 5.697941,2.044901 -0.623377,-1.454248 -0.110067,-4.348878 1.893332,-3.929723 2.346331,1.024392 4.676502,2.090315 6.971044,3.225874 z"
         id="path5502"
         sodipodi:nodetypes="ccccccccccccccccccccccccccc" />
      <path
         style="fill:#ffd065;fill-opacity:1;stroke:none;stroke-width:0.31169;stroke-miterlimit:4;stroke-dasharray:none;stroke-opacity:1"
         d="m 47.600883,117.06154 c -0.754276,-1.8132 1.586682,-3.07212 3.341817,-3.19193 1.994097,-0.50578 4.054731,-0.94693 5.892097,-1.93684 -1.47459,-4.21547 -1.435273,-9.04509 2.916986,-8.88236 2.148568,-0.15156 4.432098,1.13592 4.161108,3.25655 -0.35355,1.21732 -0.923861,3.52889 1.189834,1.92846 2.161765,-1.05305 3.934315,-2.70687 6.058505,-3.79143 2.23165,-0.6268 2.80963,1.55983 3.42853,2.89898 0.69536,1.64386 1.60875,3.21572 2.05273,4.95585 -0.25986,2.18014 -2.8698,1.50916 -4.35389,1.42598 -2.16248,0.36864 -1.56046,2.73833 -0.88116,3.85415 0.32938,1.19902 1.90366,2.8239 3.35569,1.45222 0.90744,-1.05749 1.80732,-3.19743 3.59259,-2.43624 1.26478,1.15212 1.57998,2.96828 2.38102,4.424 0.43741,1.48956 2.16835,3.20834 0.52068,4.78351 -2.89055,-2.26556 -11.69314,1.73457 -8.74253,4.792 1.61623,0.60092 3.76228,1.21237 3.10101,2.91515 -0.82378,2.4738 -3.74335,4.44176 -6.50857,4.114 -2.20799,0.0249 -2.71188,-1.7003 -2.04039,-3.78936 0.36146,-0.94892 -0.76552,-2.81498 -2.427039,-1.53321 -2.18731,1.07075 -4.043711,2.64075 -6.119793,3.86779 -1.762014,0.69392 -2.968614,-0.71928 -3.291427,-2.03434 -0.81531,-1.91353 -1.823139,-3.75811 -2.425171,-5.75541 0.289765,-2.17493 2.862358,-1.50199 4.354782,-1.41526 8.726498,-4.33063 -0.934958,-8.54055 -2.805709,-4.95826 -0.449007,1.41968 -2.593236,3.16787 -3.763924,1.63828 -1.043336,-2.17172 -2.049639,-4.36313 -2.987761,-6.58229 z"
         id="path49801"
         sodipodi:nodetypes="ccccccccccccccccccccccccccc" />
      <path
         style="fill:#ffd065;fill-opacity:1;stroke:none;stroke-width:0.31169;stroke-miterlimit:4;stroke-dasharray:none;stroke-opacity:1"
         d="m 59.666793,68.338348 c -0.754276,-1.8132 1.586682,-3.07212 3.341817,-3.19193 1.994097,-0.50578 4.054731,-0.94693 5.892097,-1.93684 -1.47459,-4.21547 -1.435273,-9.04509 2.916986,-8.88236 2.148568,-0.15156 4.432098,1.13592 4.161108,3.25655 -0.35355,1.21732 -0.923861,3.52889 1.189834,1.92846 2.161765,-1.05305 3.934315,-2.70687 6.058505,-3.79143 2.23165,-0.6268 2.80963,1.55983 3.42853,2.89898 0.69536,1.64386 1.60875,3.21572 2.05273,4.95585 -0.25986,2.18014 -2.8698,1.50916 -4.35389,1.42598 -2.16248,0.36864 -1.56046,2.73833 -0.88116,3.85415 0.32938,1.19902 1.90366,2.8239 3.35569,1.45222 0.90744,-1.05749 1.80732,-3.19743 3.59259,-2.43624 1.26478,1.15212 1.57998,2.96828 2.38102,4.424 0.43741,1.48956 2.16835,3.20834 0.52068,4.78351 -2.89055,-2.26556 -11.69314,1.73457 -8.74253,4.792 1.61623,0.60092 3.76228,1.21237 3.10101,2.91515 -0.82378,2.4738 -3.74335,4.44176 -6.50857,4.114 -2.20799,0.0249 -2.71188,-1.7003 -2.04039,-3.78936 0.36146,-0.94892 -0.76552,-2.81498 -2.427039,-1.53321 -2.18731,1.07075 -4.043711,2.64075 -6.119793,3.86779 -1.762014,0.69392 -2.968614,-0.71928 -3.291427,-2.03434 -0.81531,-1.91353 -1.823139,-3.75811 -2.425171,-5.75541 0.289765,-2.17493 2.862358,-1.50199 4.354782,-1.41526 8.726498,-4.33063 -0.934958,-8.54055 -2.805709,-4.95826 -0.449007,1.41968 -2.593236,3.16787 -3.763924,1.63828 -1.043336,-2.17172 -2.049639,-4.36313 -2.987761,-6.58229 z"
         id="path49803"
         sodipodi:nodetypes="ccccccccccccccccccccccccccc" />
    </g>
  </g>
</svg>
